<svg width="20" height="20" viewBox="0 0 20 20" fill="none" xmlns="http://www.w3.org/2000/svg">
<path fill-rule="evenodd" clip-rule="evenodd" d="M0 10C0 9.44772 0.373096 9 0.833333 9H19.1667C19.6269 9 20 9.44772 20 10C20 10.5523 19.6269 11 19.1667 11H0.833333C0.373096 11 0 10.5523 0 10Z" fill="white"/>
<path fill-rule="evenodd" clip-rule="evenodd" d="M9.24783 0.244078C9.57828 -0.0813592 10.114 -0.0813592 10.4445 0.244078L19.7522 9.41074C20.0826 9.73618 20.0826 10.2638 19.7522 10.5893L10.4445 19.7559C10.114 20.0814 9.57828 20.0814 9.24783 19.7559C8.91739 19.4305 8.91739 18.9028 9.24783 18.5774L17.9572 10L9.24783 1.42259C8.91739 1.09715 8.91739 0.569515 9.24783 0.244078Z" fill="white"/>
</svg>
