<svg width="26" height="24" viewBox="0 0 26 24" fill="none" xmlns="http://www.w3.org/2000/svg">
<path d="M13.759 20.5312L13.4067 21.4671L13.759 20.5312C13.2704 20.3472 12.7296 20.3472 12.241 20.5312L5.71272 22.9891C5.65994 23.0089 5.61208 23 5.5745 22.9736C5.55588 22.9605 5.54644 22.9473 5.5425 22.9396C5.53986 22.9344 5.53734 22.928 5.53821 22.9136L5.93995 16.1545C5.97154 15.6231 5.79484 15.1046 5.45356 14.7015L1.01714 9.46155L0.270254 10.0939L1.01714 9.46155C1.00271 9.4445 1.00104 9.43509 1.00056 9.4324L1.00055 9.43232C0.999651 9.42728 0.999424 9.41838 1.00343 9.40647C1.00745 9.39452 1.01472 9.38275 1.02509 9.373C1.03391 9.3647 1.05025 9.35271 1.08242 9.34455L7.85895 7.6251C8.36499 7.49671 8.81155 7.18717 9.10387 6.7474L12.8902 1.05105C12.9078 1.02466 12.9408 1 13 1C13.0592 1 13.0922 1.02466 13.1098 1.05105L16.8961 6.7474C17.1884 7.18717 17.635 7.49671 18.141 7.62511L24.9176 9.34455C24.9498 9.35271 24.9661 9.3647 24.9749 9.373C24.9853 9.38275 24.9926 9.39452 24.9966 9.40647C25.0006 9.41838 25.0003 9.42728 24.9994 9.43233L24.9994 9.43241C24.999 9.43509 24.9973 9.44451 24.9829 9.46155L20.5464 14.7015C20.2052 15.1046 20.0285 15.6231 20.06 16.1545L20.4618 22.9136C20.4627 22.928 20.4601 22.9344 20.4575 22.9396C20.4536 22.9473 20.4441 22.9605 20.4255 22.9736C20.3879 23 20.3401 23.0089 20.2873 22.9891L13.759 20.5312Z" fill="white" stroke="#C4C4C4" stroke-width="2"/>
</svg>
