<svg width="29" height="38" viewBox="0 0 29 38" fill="none" xmlns="http://www.w3.org/2000/svg">
<path d="M16.25 22.7H9.25C8.78587 22.7 8.34075 22.8949 8.01256 23.2419C7.68437 23.5888 7.5 24.0593 7.5 24.55C7.5 25.0407 7.68437 25.5112 8.01256 25.8581C8.34075 26.2051 8.78587 26.4 9.25 26.4H16.25C16.7141 26.4 17.1592 26.2051 17.4874 25.8581C17.8156 25.5112 18 25.0407 18 24.55C18 24.0593 17.8156 23.5888 17.4874 23.2419C17.1592 22.8949 16.7141 22.7 16.25 22.7ZM23.25 4.2H21.185C20.824 3.12043 20.1559 2.18535 19.2724 1.52294C18.3889 0.860525 17.3332 0.503218 16.25 0.5H12.75C11.6668 0.503218 10.6111 0.860525 9.72764 1.52294C8.84412 2.18535 8.17605 3.12043 7.815 4.2H5.75C4.35761 4.2 3.02226 4.78473 2.03769 5.82556C1.05312 6.86638 0.5 8.27805 0.5 9.75V31.95C0.5 33.422 1.05312 34.8336 2.03769 35.8744C3.02226 36.9153 4.35761 37.5 5.75 37.5H23.25C24.6424 37.5 25.9777 36.9153 26.9623 35.8744C27.9469 34.8336 28.5 33.422 28.5 31.95V9.75C28.5 8.27805 27.9469 6.86638 26.9623 5.82556C25.9777 4.78473 24.6424 4.2 23.25 4.2ZM11 6.05C11 5.55935 11.1844 5.0888 11.5126 4.74185C11.8408 4.39491 12.2859 4.2 12.75 4.2H16.25C16.7141 4.2 17.1592 4.39491 17.4874 4.74185C17.8156 5.0888 18 5.55935 18 6.05V7.9H11V6.05ZM25 31.95C25 32.4407 24.8156 32.9112 24.4874 33.2581C24.1593 33.6051 23.7141 33.8 23.25 33.8H5.75C5.28587 33.8 4.84075 33.6051 4.51256 33.2581C4.18437 32.9112 4 32.4407 4 31.95V9.75C4 9.25935 4.18437 8.7888 4.51256 8.44185C4.84075 8.09491 5.28587 7.9 5.75 7.9H7.5V9.75C7.5 10.2407 7.68437 10.7112 8.01256 11.0581C8.34075 11.4051 8.78587 11.6 9.25 11.6H19.75C20.2141 11.6 20.6592 11.4051 20.9874 11.0581C21.3156 10.7112 21.5 10.2407 21.5 9.75V7.9H23.25C23.7141 7.9 24.1593 8.09491 24.4874 8.44185C24.8156 8.7888 25 9.25935 25 9.75V31.95ZM19.75 15.3H9.25C8.78587 15.3 8.34075 15.4949 8.01256 15.8419C7.68437 16.1888 7.5 16.6593 7.5 17.15C7.5 17.6406 7.68437 18.1112 8.01256 18.4581C8.34075 18.8051 8.78587 19 9.25 19H19.75C20.2141 19 20.6592 18.8051 20.9874 18.4581C21.3156 18.1112 21.5 17.6406 21.5 17.15C21.5 16.6593 21.3156 16.1888 20.9874 15.8419C20.6592 15.4949 20.2141 15.3 19.75 15.3Z" fill="#666666"/>
</svg>
