<svg width="37" height="38" viewBox="0 0 37 38" fill="none" xmlns="http://www.w3.org/2000/svg">
<path d="M23.558 19.518C24.6974 18.2604 25.3392 16.6112 25.358 14.893C25.358 13.0383 24.6412 11.2596 23.3652 9.9482C22.0892 8.63676 20.3585 7.9 18.554 7.9C16.7495 7.9 15.0188 8.63676 13.7428 9.9482C12.4668 11.2596 11.75 13.0383 11.75 14.893C11.7688 16.6112 12.4106 18.2604 13.55 19.518C11.9636 20.3299 10.5984 21.5344 9.57725 23.0231C8.5561 24.5118 7.91101 26.238 7.7 28.0465C7.64749 28.5371 7.78677 29.0291 8.0872 29.4143C8.38763 29.7994 8.82461 30.046 9.302 30.1C9.77939 30.154 10.2581 30.0108 10.6328 29.702C11.0075 29.3933 11.2475 28.9442 11.3 28.4535C11.5148 26.6611 12.3599 25.0113 13.6762 23.8149C14.9924 22.6185 16.6889 21.9581 18.446 21.9581C20.2031 21.9581 21.8996 22.6185 23.2158 23.8149C24.5321 25.0113 25.3772 26.6611 25.592 28.4535C25.6421 28.9279 25.8685 29.364 26.2241 29.6708C26.5796 29.9776 27.0368 30.1314 27.5 30.1H27.698C28.1698 30.0442 28.6011 29.799 28.8978 29.4178C29.1945 29.0366 29.3326 28.5504 29.282 28.065C29.0866 26.266 28.4619 24.5445 27.4633 23.0534C26.4647 21.5624 25.1232 20.3479 23.558 19.518ZM18.5 18.186C17.8663 18.186 17.2468 17.9929 16.72 17.631C16.1931 17.2692 15.7824 16.7549 15.5399 16.1532C15.2974 15.5515 15.2339 14.8893 15.3576 14.2506C15.4812 13.6118 15.7863 13.025 16.2344 12.5645C16.6825 12.104 17.2534 11.7903 17.8749 11.6633C18.4964 11.5362 19.1407 11.6014 19.7261 11.8507C20.3116 12.0999 20.812 12.522 21.164 13.0635C21.5161 13.605 21.704 14.2417 21.704 14.893C21.704 15.7664 21.3664 16.6039 20.7656 17.2215C20.1647 17.8391 19.3498 18.186 18.5 18.186ZM31.1 0.5H5.9C4.46783 0.5 3.09432 1.08473 2.08162 2.12556C1.06893 3.16638 0.5 4.57805 0.5 6.05V31.95C0.5 33.422 1.06893 34.8336 2.08162 35.8744C3.09432 36.9153 4.46783 37.5 5.9 37.5H31.1C32.5322 37.5 33.9057 36.9153 34.9184 35.8744C35.9311 34.8336 36.5 33.422 36.5 31.95V6.05C36.5 4.57805 35.9311 3.16638 34.9184 2.12556C33.9057 1.08473 32.5322 0.5 31.1 0.5ZM32.9 31.95C32.9 32.4407 32.7104 32.9112 32.3728 33.2581C32.0352 33.6051 31.5774 33.8 31.1 33.8H5.9C5.42261 33.8 4.96477 33.6051 4.62721 33.2581C4.28964 32.9112 4.1 32.4407 4.1 31.95V6.05C4.1 5.55935 4.28964 5.0888 4.62721 4.74185C4.96477 4.39491 5.42261 4.2 5.9 4.2H31.1C31.5774 4.2 32.0352 4.39491 32.3728 4.74185C32.7104 5.0888 32.9 5.55935 32.9 6.05V31.95Z" fill="#666666"/>
</svg>
