<svg width="26" height="24" viewBox="0 0 26 24" fill="none" xmlns="http://www.w3.org/2000/svg">
<path d="M12.0574 0.497485C12.4983 -0.165829 13.5017 -0.165828 13.9426 0.497486L17.7289 6.19383C17.8806 6.42206 18.1155 6.58693 18.387 6.65582L25.1635 8.37526C25.9526 8.57548 26.2627 9.49754 25.7461 10.1077L21.3096 15.3477C21.1319 15.5576 21.0422 15.8244 21.0583 16.0952L21.46 22.8542C21.5068 23.6413 20.6951 24.2111 19.9349 23.9249L13.4067 21.4671C13.1451 21.3686 12.8549 21.3686 12.5933 21.4671L6.06507 23.9249C5.30488 24.2111 4.49319 23.6413 4.53997 22.8542L4.94172 16.0952C4.95781 15.8244 4.86811 15.5576 4.69036 15.3477L0.253945 10.1077C-0.262656 9.49754 0.0473865 8.57548 0.836483 8.37526L7.61301 6.65582C7.88451 6.58693 8.11936 6.42206 8.27106 6.19383L12.0574 0.497485Z" fill="#9ABA00"/>
</svg>
