<svg width="37" height="38" viewBox="0 0 37 38" fill="none" xmlns="http://www.w3.org/2000/svg">
<path d="M5.9 30.1021H13.532C13.7689 30.1036 14.0037 30.0569 14.223 29.9649C14.4423 29.8728 14.6418 29.7372 14.81 29.5658L27.266 16.749L32.378 11.6075C32.5467 11.4356 32.6806 11.231 32.772 11.0056C32.8634 10.7803 32.9104 10.5385 32.9104 10.2944C32.9104 10.0502 32.8634 9.8085 32.772 9.58313C32.6806 9.35775 32.5467 9.1532 32.378 8.98127L24.746 1.04707C24.5787 0.873721 24.3796 0.736131 24.1602 0.642237C23.9409 0.548342 23.7056 0.5 23.468 0.5C23.2304 0.5 22.9951 0.548342 22.7758 0.642237C22.5564 0.736131 22.3573 0.873721 22.19 1.04707L17.114 6.28105L4.622 19.0978C4.45517 19.2706 4.32319 19.4756 4.23361 19.7009C4.14404 19.9263 4.09863 20.1676 4.1 20.411V28.2527C4.1 28.7432 4.28964 29.2136 4.62721 29.5605C4.96477 29.9073 5.42261 30.1021 5.9 30.1021ZM23.468 4.96793L28.562 10.2019L26.006 12.8282L20.912 7.59417L23.468 4.96793ZM7.7 21.1692L18.374 10.2019L23.468 15.4359L12.794 26.4032H7.7V21.1692ZM34.7 33.8011H2.3C1.82261 33.8011 1.36477 33.9959 1.02721 34.3428C0.689642 34.6896 0.5 35.16 0.5 35.6505C0.5 36.141 0.689642 36.6115 1.02721 36.9583C1.36477 37.3051 1.82261 37.5 2.3 37.5H34.7C35.1774 37.5 35.6352 37.3051 35.9728 36.9583C36.3104 36.6115 36.5 36.141 36.5 35.6505C36.5 35.16 36.3104 34.6896 35.9728 34.3428C35.6352 33.9959 35.1774 33.8011 34.7 33.8011Z" fill="#666666"/>
</svg>
