<svg width="36" height="40" viewBox="0 0 36 40" fill="none" xmlns="http://www.w3.org/2000/svg">
<path d="M34 12.0335L22 1.52604C20.9 0.543304 19.4759 0 18.0001 0C16.5242 0 15.1001 0.543304 14.0001 1.52604L2.00018 12.0335C1.36492 12.6009 0.857984 13.2971 0.51313 14.0755C0.168276 14.854 -0.00658507 15.6968 0.000189587 16.5481V34.0072C0.000189587 35.5966 0.632326 37.1209 1.75754 38.2447C2.88275 39.3686 4.40886 40 6.00015 40H30C31.5913 40 33.1174 39.3686 34.2426 38.2447C35.3678 37.1209 35.9999 35.5966 35.9999 34.0072V16.5281C36.0039 15.6802 35.8276 14.8412 35.4829 14.0664C35.1381 13.2916 34.6327 12.5987 34 12.0335ZM22 36.0048H14.0001V26.0167C14.0001 25.4869 14.2108 24.9788 14.5859 24.6042C14.9609 24.2296 15.4696 24.0191 16.0001 24.0191H20C20.5305 24.0191 21.0392 24.2296 21.4142 24.6042C21.7893 24.9788 22 25.4869 22 26.0167V36.0048ZM32 34.0072C32 34.537 31.7893 35.0451 31.4142 35.4197C31.0391 35.7943 30.5304 36.0048 30 36.0048H26V26.0167C26 24.4273 25.3679 22.903 24.2427 21.7792C23.1174 20.6553 21.5913 20.0239 20 20.0239H16.0001C14.4088 20.0239 12.8827 20.6553 11.7575 21.7792C10.6323 22.903 10.0001 24.4273 10.0001 26.0167V36.0048H6.00015C5.46972 36.0048 4.96101 35.7943 4.58594 35.4197C4.21087 35.0451 4.00016 34.537 4.00016 34.0072V16.5281C4.00052 16.2445 4.06135 15.9642 4.17859 15.7058C4.29584 15.4475 4.46682 15.2171 4.68016 15.0299L16.6801 4.54243C17.045 4.22217 17.5142 4.04555 18.0001 4.04555C18.4859 4.04555 18.9551 4.22217 19.3201 4.54243L31.32 15.0299C31.5333 15.2171 31.7043 15.4475 31.8215 15.7058C31.9388 15.9642 31.9996 16.2445 32 16.5281V34.0072Z" fill="#666666"/>
</svg>
